<svg xmlns="http://www.w3.org/2000/svg" xmlns:xlink="http://www.w3.org/1999/xlink" width="1080" zoomAndPan="magnify" viewBox="0 0 810 809.999993" height="1080" preserveAspectRatio="xMidYMid meet" version="1.0"><defs><g/></defs><rect x="-81" width="972" fill="#ffffff" y="-80.999999" height="971.999992" fill-opacity="1"/><rect x="-81" width="972" fill="#ffffff" y="-80.999999" height="971.999992" fill-opacity="1"/><rect x="-81" width="972" fill="#ffffff" y="-80.999999" height="971.999992" fill-opacity="1"/><g fill="#ff66c4" fill-opacity="1"><g transform="translate(161.378902, 505.369917)"><g><path d="M 190.75 -160.902344 C 189.933594 -179.894531 182.066406 -196.445312 169.3125 -210.285156 C 157.375 -221.410156 143.808594 -230.363281 127.796875 -234.433594 L 128.070312 -234.160156 C 126.441406 -234.976562 125.085938 -235.246094 123.730469 -235.519531 L 116.402344 -236.605469 C 115.316406 -236.605469 114.230469 -236.605469 112.875 -236.875 C 107.992188 -236.875 102.835938 -236.605469 98.222656 -236.0625 C 89.269531 -234.433594 80.859375 -231.992188 73.804688 -229.550781 L 62.679688 -224.9375 C 43.957031 -218.695312 18.179688 -198.617188 5.699219 -184.238281 L 0.542969 -178.539062 C 0.269531 -177.453125 0.542969 -177.453125 0.542969 -177.453125 C -0.269531 -176.097656 0.269531 -174.195312 1.355469 -173.382812 C 1.628906 -173.113281 2.171875 -173.113281 2.441406 -173.113281 C 3.796875 -173.113281 4.882812 -173.65625 5.425781 -174.738281 C 5.425781 -174.738281 5.699219 -175.011719 6.511719 -176.097656 C 10.851562 -183.421875 18.992188 -191.5625 25.777344 -196.71875 C 42.058594 -211.097656 68.375 -224.664062 90.355469 -224.664062 C 97.136719 -224.664062 103.648438 -223.578125 109.890625 -221.410156 C 109.890625 -221.410156 110.703125 -221.136719 110.976562 -221.136719 C 111.789062 -220.59375 112.605469 -220.324219 113.417969 -220.324219 L 115.859375 -218.96875 C 116.132812 -218.96875 116.402344 -218.96875 116.945312 -218.695312 C 117.488281 -218.152344 118.300781 -217.882812 118.84375 -217.609375 C 119.117188 -217.339844 120.472656 -216.523438 121.015625 -216.523438 L 121.285156 -216.523438 C 144.078125 -204.316406 165.242188 -188.035156 167.140625 -159.816406 L 167.414062 -156.289062 L 167.414062 -153.03125 C 167.414062 -152.492188 167.140625 -151.675781 167.140625 -151.132812 L 167.140625 -149.503906 C 167.140625 -149.234375 166.871094 -146.519531 166.601562 -146.25 C 166.601562 -145.707031 166.058594 -143.535156 166.058594 -142.992188 C 165.785156 -142.722656 165.515625 -141.910156 165.515625 -141.09375 C 165.242188 -140.007812 165.242188 -139.464844 165.242188 -138.921875 L 164.699219 -137.296875 C 164.699219 -136.753906 164.15625 -136.210938 164.15625 -135.9375 L 163.34375 -132.410156 C 159.816406 -123.457031 154.660156 -114.230469 149.503906 -105.277344 C 148.964844 -104.734375 148.691406 -104.191406 148.421875 -103.378906 L 147.335938 -101.75 L 147.335938 -102.023438 L 144.894531 -98.765625 C 135.125 -83.027344 119.929688 -68.648438 105.277344 -57.792969 C 105.277344 -57.792969 103.378906 -56.710938 102.023438 -55.894531 L 101.207031 -56.167969 C 98.765625 -57.25 96.324219 -58.335938 95.238281 -58.609375 C 94.425781 -58.609375 93.609375 -58.878906 93.066406 -59.152344 L 88.183594 -60.238281 C 87.640625 -60.238281 87.640625 -60.238281 87.371094 -60.507812 C 81.128906 -61.320312 75.429688 -61.59375 69.460938 -61.59375 C 65.121094 -61.59375 59.421875 -61.050781 55.082031 -59.695312 L 54.808594 -67.5625 C 54.539062 -72.71875 53.996094 -78.144531 53.996094 -83.300781 L 53.996094 -88.726562 C 53.996094 -92.523438 53.722656 -96.050781 53.996094 -99.851562 C 53.996094 -102.292969 53.996094 -105.007812 54.265625 -107.71875 C 54.265625 -110.703125 54.265625 -113.417969 54.539062 -115.859375 C 54.808594 -121.558594 54.808594 -126.984375 55.351562 -132.140625 C 55.894531 -140.28125 56.4375 -148.964844 57.792969 -157.101562 L 57.792969 -156.832031 C 58.066406 -157.917969 58.335938 -158.730469 58.335938 -160.359375 L 61.050781 -180.4375 L 61.863281 -184.238281 C 61.863281 -184.507812 62.136719 -185.320312 62.136719 -185.59375 C 62.40625 -186.679688 62.40625 -187.765625 62.40625 -187.765625 C 63.765625 -193.734375 59.695312 -199.429688 53.722656 -200.515625 C 48.296875 -200.515625 42.597656 -197.53125 41.242188 -191.832031 C 41.242188 -191.832031 40.972656 -190.476562 40.699219 -189.664062 C 40.699219 -189.121094 40.429688 -188.304688 40.429688 -187.765625 L 39.613281 -183.695312 C 38.800781 -178.808594 37.714844 -171.753906 36.628906 -163.34375 L 35.003906 -149.503906 C 33.644531 -138.921875 33.101562 -128.070312 32.558594 -117.488281 C 32.289062 -115.859375 32.289062 -110.976562 32.289062 -109.078125 C 32.015625 -106.363281 32.015625 -102.566406 32.015625 -100.121094 C 31.746094 -96.324219 32.015625 -92.253906 32.015625 -88.457031 L 32.015625 -83.027344 C 32.015625 -77.601562 32.289062 -71.632812 32.832031 -66.207031 L 34.1875 -50.195312 L 34.1875 -49.382812 C 32.289062 -48.296875 30.390625 -47.484375 28.761719 -46.125 C 27.675781 -45.042969 26.320312 -43.683594 25.234375 -42.058594 L 24.421875 -39.34375 L 24.421875 -36.902344 C 24.421875 -36.902344 24.691406 -35.542969 25.503906 -34.730469 L 26.589844 -33.917969 C 26.863281 -33.917969 27.675781 -33.644531 27.675781 -33.644531 L 28.761719 -33.101562 C 28.21875 -33.101562 29.03125 -32.832031 29.847656 -32.558594 C 31.203125 -32.289062 32.558594 -32.015625 35.273438 -32.015625 L 37.171875 -32.015625 L 38.53125 -24.421875 C 38.800781 -23.878906 39.070312 -22.25 39.070312 -21.707031 L 39.886719 -19.808594 L 40.429688 -17.367188 C 40.699219 -16.824219 40.972656 -16.007812 40.972656 -15.195312 C 42.058594 -10.039062 42.871094 -7.054688 42.871094 -7.054688 C 44.226562 -2.441406 48.839844 0.8125 53.453125 0.8125 C 54.539062 0.8125 55.351562 0.542969 56.4375 0.269531 C 62.40625 -1.355469 65.933594 -7.054688 64.578125 -12.753906 C 64.035156 -13.566406 62.949219 -17.636719 61.863281 -20.894531 L 60.777344 -24.960938 C 60.507812 -25.503906 60.238281 -26.320312 59.964844 -26.589844 L 60.238281 -26.320312 C 60.238281 -26.589844 59.964844 -26.863281 59.964844 -27.40625 L 59.964844 -29.304688 L 59.152344 -32.558594 L 59.152344 -33.375 C 65.664062 -34.1875 71.632812 -35.816406 77.601562 -37.445312 L 92.253906 -42.597656 C 109.347656 -36.902344 116.132812 -28.21875 116.132812 -18.722656 C 116.132812 1.355469 87.097656 24.148438 68.375 27.675781 C 65.933594 27.675781 62.136719 26.320312 60.777344 24.691406 C 59.152344 23.335938 58.066406 21.164062 58.335938 18.992188 C 58.335938 17.09375 59.695312 13.566406 60.507812 11.9375 C 62.679688 9.226562 65.121094 5.96875 64.847656 6.242188 C 67.832031 3.257812 71.632812 0.8125 75.160156 -1.355469 L 74.886719 -1.355469 L 81.941406 -4.613281 C 81.941406 -4.613281 82.757812 -4.882812 83.027344 -5.15625 L 89.269531 -7.054688 C 90.625 -7.324219 91.167969 -7.597656 91.167969 -7.597656 C 93.609375 -8.410156 94.152344 -9.496094 93.609375 -10.851562 C 92.796875 -12.480469 91.441406 -13.566406 90.355469 -13.566406 C 89.8125 -13.566406 89.539062 -13.566406 89.269531 -13.296875 L 89.539062 -13.566406 L 74.617188 -7.054688 L 72.445312 -6.511719 C 69.191406 -4.339844 65.390625 -1.628906 61.320312 2.441406 C 61.050781 2.984375 60.507812 3.527344 59.964844 3.796875 C 59.695312 4.339844 59.152344 4.882812 58.609375 5.425781 C 58.335938 5.699219 58.066406 6.511719 58.066406 6.785156 C 58.066406 6.785156 57.792969 6.785156 57.523438 7.054688 L 58.066406 6.242188 C 57.523438 6.785156 56.980469 6.785156 56.980469 7.597656 L 56.4375 8.410156 C 54.539062 11.667969 53.453125 15.195312 53.453125 18.722656 C 53.183594 22.25 54.808594 26.320312 57.792969 28.761719 L 57.523438 28.761719 C 60.507812 31.746094 64.578125 32.558594 68.375 32.832031 C 84.386719 32.832031 106.632812 21.164062 118.03125 10.851562 L 117.757812 10.851562 L 124 5.425781 C 126.441406 2.984375 128.882812 -0.542969 131.597656 -5.15625 C 134.039062 -9.226562 135.394531 -14.652344 135.125 -20.078125 C 134.851562 -23.605469 134.3125 -24.960938 133.769531 -26.589844 C 132.140625 -29.574219 130.785156 -33.375 129.15625 -35.273438 C 124 -41.515625 117.757812 -46.941406 110.703125 -51.011719 C 120.472656 -56.167969 130.242188 -62.136719 139.195312 -69.734375 L 139.195312 -69.460938 C 143.808594 -72.988281 148.148438 -76.789062 152.492188 -81.128906 L 154.660156 -83.300781 C 155.746094 -84.386719 159.273438 -88.183594 159.273438 -88.183594 C 159.273438 -88.183594 159.816406 -88.183594 160.359375 -88.726562 L 161.988281 -90.898438 L 161.714844 -90.355469 L 163.34375 -91.984375 C 163.34375 -92.253906 164.15625 -93.339844 164.429688 -93.882812 C 172.027344 -102.835938 179.082031 -113.6875 183.695312 -124.542969 C 188.578125 -135.9375 191.292969 -148.148438 190.75 -160.902344 Z M 58.066406 -37.714844 L 57.523438 -39.886719 L 56.980469 -45.042969 C 64.304688 -44.226562 72.175781 -44.226562 79.5 -44.226562 L 75.972656 -42.871094 C 69.460938 -40.699219 64.304688 -39.070312 58.066406 -37.714844 Z M 29.574219 -37.988281 L 29.574219 -38.257812 L 30.117188 -39.34375 L 30.117188 -39.070312 C 30.660156 -39.886719 31.476562 -40.699219 32.289062 -41.242188 L 35.273438 -42.597656 C 35.273438 -40.972656 35.273438 -42.328125 35.542969 -40.699219 L 36.085938 -36.359375 C 35.816406 -36.359375 35.542969 -36.628906 35.542969 -36.628906 L 31.476562 -37.445312 L 32.015625 -37.171875 C 30.660156 -37.714844 29.847656 -37.988281 29.574219 -37.988281 Z M 29.574219 -37.714844 L 29.847656 -37.714844 L 29.847656 -37.171875 C 29.847656 -37.171875 29.574219 -37.445312 29.574219 -37.714844 Z M 29.574219 -37.714844 "/></g></g></g><g fill="#ff66c4" fill-opacity="1"><g transform="translate(368.678501, 505.369917)"><g><path d="M 105.277344 -253.425781 C 55.625 -253.425781 30.933594 -192.105469 18.722656 -151.40625 L 13.839844 -134.039062 C 12.210938 -128.339844 11.125 -122.101562 9.769531 -116.132812 C 2.984375 -86.285156 -1.085938 -55.082031 -1.085938 -24.421875 C -1.085938 -5.15625 -0.542969 20.621094 11.667969 36.628906 C 14.921875 41.515625 19.535156 45.855469 25.234375 48.839844 C 27.949219 50.46875 30.660156 51.28125 33.375 51.824219 C 33.644531 52.097656 37.171875 52.367188 37.714844 52.367188 L 41.242188 52.367188 C 67.832031 52.367188 79.5 38.53125 94.425781 19.535156 L 106.363281 4.613281 C 109.890625 -0.269531 114.503906 -4.882812 118.300781 -9.769531 C 120.203125 -12.210938 122.914062 -14.921875 124.542969 -17.09375 L 133.769531 -27.675781 C 137.839844 -32.015625 139.464844 -33.917969 139.464844 -33.917969 C 140.550781 -35.003906 140.550781 -37.171875 139.464844 -38.257812 C 138.921875 -38.53125 138.109375 -38.800781 137.296875 -38.800781 C 136.480469 -38.800781 135.667969 -38.53125 135.125 -37.714844 L 129.699219 -31.746094 C 126.171875 -27.40625 120.472656 -20.894531 113.960938 -12.753906 L 102.292969 1.628906 L 102.566406 1.628906 L 90.625 16.550781 L 90.625 16.28125 L 88.996094 18.449219 C 78.957031 30.390625 65.933594 45.3125 48.839844 45.3125 C 46.667969 45.3125 44.226562 45.042969 41.785156 44.769531 C 37.988281 43.957031 34.460938 42.328125 31.746094 39.34375 C 30.117188 37.171875 28.21875 32.832031 26.863281 29.03125 C 23.335938 15.195312 21.976562 1.355469 21.976562 -13.023438 C 21.976562 -21.707031 22.792969 -30.660156 23.605469 -39.886719 C 61.050781 -66.476562 115.316406 -121.015625 135.667969 -164.15625 L 138.652344 -171.753906 C 139.464844 -173.925781 140.28125 -176.640625 140.824219 -179.351562 C 142.992188 -187.492188 144.078125 -195.359375 144.078125 -203.773438 C 144.078125 -228.464844 132.953125 -253.425781 105.277344 -253.425781 Z M 138.109375 -196.175781 C 137.839844 -190.75 137.023438 -185.59375 135.667969 -180.4375 L 133.496094 -173.382812 C 132.683594 -170.398438 131.867188 -167.957031 131.054688 -166.601562 C 116.945312 -133.769531 69.191406 -81.941406 38.800781 -58.335938 C 33.101562 -53.453125 28.21875 -50.195312 24.148438 -47.210938 C 24.421875 -51.824219 24.960938 -56.167969 25.777344 -61.050781 L 26.863281 -69.460938 C 27.132812 -71.902344 27.40625 -75.160156 27.949219 -77.875 L 28.761719 -82.214844 C 35.542969 -123.457031 51.011719 -207.300781 82.757812 -236.605469 C 90.355469 -242.03125 99.308594 -246.914062 108.804688 -246.914062 C 109.890625 -246.914062 110.976562 -246.914062 112.0625 -246.644531 C 122.914062 -245.015625 129.96875 -236.605469 134.582031 -227.105469 L 134.3125 -227.105469 C 138.109375 -216.796875 138.921875 -206.214844 138.109375 -196.175781 Z M 138.109375 -196.175781 "/></g></g></g><g fill="#ff66c4" fill-opacity="1"><g transform="translate(503.260422, 505.369917)"><g><path d="M 87.371094 -37.171875 C 86.828125 -38.257812 86.011719 -39.070312 84.929688 -39.070312 C 84.65625 -39.070312 84.386719 -38.800781 84.113281 -38.800781 C 83.570312 -38.800781 82.757812 -38.257812 80.585938 -37.171875 L 80.859375 -37.445312 L 78.144531 -36.359375 C 78.6875 -36.359375 77.332031 -35.816406 76.246094 -35.542969 L 72.175781 -34.1875 C 68.105469 -33.101562 63.765625 -31.746094 58.335938 -30.933594 L 52.367188 -30.390625 C 52.097656 -32.558594 52.097656 -33.917969 51.554688 -35.542969 C 49.925781 -44.769531 46.125 -54.265625 39.886719 -61.863281 C 36.628906 -65.390625 32.832031 -68.375 28.21875 -70.820312 C 23.605469 -72.71875 18.449219 -74.074219 13.839844 -74.347656 C 8.140625 -74.347656 2.171875 -73.53125 -1.898438 -69.460938 C -4.070312 -67.019531 -5.425781 -62.949219 -5.425781 -59.964844 C -4.882812 -52.640625 0.8125 -45.585938 6.242188 -40.972656 C 3.257812 -40.699219 0 -39.34375 -2.441406 -36.902344 C -2.441406 -36.902344 -2.441406 -36.628906 -2.714844 -36.359375 C -3.527344 -35.273438 -3.796875 -35.003906 -3.796875 -34.1875 L -4.339844 -32.832031 C -6.242188 -29.574219 -7.324219 -24.960938 -7.867188 -19.808594 C -8.140625 -14.652344 -7.597656 -8.410156 -5.425781 -1.628906 C -3.527344 4.882812 -0.269531 9.769531 4.613281 14.652344 C 6.511719 15.738281 8.683594 17.367188 11.394531 18.179688 C 13.566406 18.722656 16.007812 18.992188 18.992188 18.992188 L 21.707031 18.992188 L 24.148438 18.722656 L 25.777344 18.722656 L 32.558594 17.90625 C 34.730469 17.367188 36.359375 16.28125 38.53125 14.921875 C 42.058594 13.023438 44.769531 8.683594 47.210938 4.882812 C 49.113281 0.8125 50.738281 -3.527344 51.554688 -7.867188 C 52.640625 -13.296875 53.183594 -18.992188 52.910156 -24.960938 C 59.421875 -24.960938 66.75 -26.589844 72.988281 -28.488281 C 73.261719 -28.488281 73.53125 -28.761719 73.53125 -28.761719 L 82.757812 -32.015625 C 83.570312 -32.289062 86.011719 -33.644531 86.011719 -33.644531 C 87.371094 -33.917969 88.183594 -35.542969 87.371094 -37.171875 Z M 39.34375 -25.503906 C 42.328125 -24.960938 45.042969 -24.691406 48.027344 -24.691406 C 48.570312 -19.265625 48.027344 -14.378906 46.667969 -8.683594 L 46.667969 -8.953125 C 45.585938 -4.882812 44.5 -0.542969 42.871094 2.441406 C 40.15625 6.511719 36.085938 10.851562 31.203125 11.9375 C 29.574219 11.9375 28.21875 11.9375 26.589844 11.394531 C 26.046875 11.125 26.320312 11.667969 26.046875 11.394531 L 24.421875 9.769531 C 24.148438 9.769531 23.605469 8.953125 23.335938 8.683594 C 22.792969 7.597656 22.25 6.242188 21.976562 5.15625 L 21.976562 5.425781 L 20.351562 1.085938 L 20.621094 1.355469 C 20.351562 0.8125 19.535156 -0.542969 18.992188 -2.171875 L 19.265625 -1.898438 C 17.367188 -7.324219 16.550781 -13.023438 16.550781 -18.992188 C 16.550781 -21.976562 16.550781 -24.148438 16.824219 -25.234375 C 16.824219 -26.046875 17.09375 -26.320312 17.09375 -26.320312 C 17.636719 -28.488281 17.636719 -30.933594 17.09375 -33.101562 C 23.878906 -29.304688 31.476562 -26.046875 39.34375 -25.503906 Z M 40.15625 -30.933594 C 29.574219 -32.558594 18.992188 -37.988281 12.210938 -46.398438 L 12.480469 -46.398438 L 7.324219 -53.722656 L 7.597656 -52.910156 L 5.96875 -56.167969 C 5.699219 -57.523438 5.15625 -58.878906 5.15625 -60.777344 C 4.882812 -62.136719 4.882812 -62.949219 5.425781 -64.035156 L 5.425781 -63.765625 C 5.96875 -64.847656 7.054688 -66.476562 8.410156 -67.292969 C 9.226562 -68.105469 13.566406 -68.375 14.921875 -68.375 C 21.707031 -68.375 32.015625 -63.765625 36.085938 -58.335938 C 42.058594 -51.824219 45.3125 -43.140625 46.941406 -34.460938 L 47.753906 -30.117188 C 45.3125 -30.117188 42.597656 -30.660156 40.15625 -30.933594 Z M 40.15625 -30.933594 "/></g></g></g><g fill="#ff66c4" fill-opacity="1"><g transform="translate(589.273479, 505.369917)"><g><path d="M 144.351562 -37.171875 C 143.808594 -38.257812 142.992188 -38.800781 141.910156 -38.800781 C 141.367188 -38.800781 141.09375 -38.800781 140.550781 -38.53125 L 134.582031 -35.273438 C 130.785156 -33.375 125.085938 -30.117188 118.300781 -25.777344 C 111.789062 -21.976562 104.464844 -16.824219 96.324219 -11.394531 C 93.882812 -19.265625 90.898438 -29.304688 86.011719 -35.816406 L 86.011719 -35.542969 L 84.929688 -37.714844 C 82.757812 -40.972656 79.230469 -42.597656 75.703125 -42.597656 C 74.074219 -42.597656 72.445312 -42.328125 70.820312 -41.515625 C 67.019531 -39.613281 64.847656 -35.542969 65.121094 -31.476562 L 61.320312 -26.863281 L 53.183594 -18.179688 C 47.753906 -12.753906 41.785156 -7.867188 35.273438 -3.796875 L 29.847656 -0.542969 C 28.761719 0.269531 27.132812 0.8125 25.503906 1.355469 C 24.421875 1.628906 23.605469 1.628906 22.792969 1.628906 C 22.25 1.628906 21.976562 1.628906 21.707031 1.628906 C 20.894531 1.355469 21.433594 2.714844 21.433594 2.714844 L 19.808594 1.085938 C 19.535156 1.085938 19.265625 0.8125 18.992188 0.542969 L 20.078125 1.085938 L 18.179688 -0.542969 C 17.09375 -2.171875 16.550781 -4.882812 16.550781 -7.054688 C 16.550781 -9.496094 16.824219 -12.480469 17.09375 -15.464844 C 17.09375 -17.90625 17.09375 -19.535156 17.367188 -21.433594 L 17.367188 -22.792969 L 17.636719 -24.148438 L 17.636719 -25.503906 L 17.90625 -26.046875 C 18.449219 -29.304688 19.265625 -32.558594 20.351562 -35.003906 L 23.878906 -43.140625 C 23.878906 -42.871094 24.148438 -43.414062 24.691406 -43.957031 L 30.933594 -53.183594 L 32.289062 -54.539062 C 34.1875 -56.710938 35.542969 -59.152344 37.988281 -60.777344 C 40.699219 -62.949219 43.414062 -65.390625 46.667969 -67.292969 C 52.640625 -71.359375 59.695312 -74.074219 66.75 -74.617188 L 67.5625 -74.617188 C 67.832031 -74.347656 69.460938 -74.074219 69.734375 -74.074219 L 73.261719 -72.175781 L 74.074219 -71.089844 L 74.074219 -70.820312 C 74.347656 -70.277344 74.617188 -69.460938 74.347656 -68.648438 C 74.886719 -65.933594 76.789062 -65.390625 78.414062 -65.390625 C 80.316406 -65.933594 80.585938 -67.5625 80.585938 -68.917969 C 80.316406 -71.089844 79.773438 -72.445312 78.957031 -73.804688 L 75.703125 -77.332031 L 73.261719 -78.6875 C 72.988281 -78.6875 72.71875 -78.957031 72.175781 -79.5 C 71.902344 -79.773438 70.277344 -80.316406 70.003906 -80.316406 L 70.277344 -80.042969 C 70.003906 -80.316406 69.191406 -80.585938 68.917969 -80.585938 L 67.832031 -81.128906 C 67.5625 -81.128906 67.5625 -81.128906 67.019531 -81.402344 C 58.066406 -81.402344 50.195312 -80.585938 41.785156 -77.332031 C 38.800781 -75.972656 33.644531 -73.804688 30.117188 -71.902344 C 25.777344 -69.191406 22.25 -67.019531 19.265625 -64.578125 L 19.265625 -64.304688 C 12.480469 -58.878906 5.96875 -52.097656 1.898438 -43.683594 C -0.542969 -39.613281 -2.171875 -34.730469 -3.257812 -30.660156 L -3.527344 -27.949219 L -4.070312 -26.320312 L -4.070312 -24.691406 C -4.070312 -24.421875 -4.339844 -24.148438 -4.339844 -24.148438 C -4.613281 -21.164062 -4.613281 -18.992188 -4.613281 -16.28125 C -4.339844 -10.582031 -0.269531 1.628906 4.882812 4.882812 C 7.324219 7.054688 10.3125 8.683594 12.753906 9.496094 C 13.296875 9.496094 14.109375 9.769531 14.378906 9.769531 C 15.738281 9.769531 16.28125 10.039062 16.550781 10.039062 L 18.179688 10.039062 C 20.078125 10.039062 20.621094 10.039062 21.707031 9.496094 L 21.433594 9.769531 C 23.0625 9.226562 25.503906 8.410156 27.949219 7.324219 L 29.574219 6.511719 C 32.289062 4.882812 35.003906 3.527344 38.53125 0.8125 L 38.53125 1.085938 C 44.226562 -3.257812 51.28125 -9.769531 56.710938 -14.652344 C 59.964844 -17.636719 63.492188 -21.707031 67.019531 -24.960938 L 68.648438 -22.25 L 68.648438 -21.707031 C 70.277344 -18.179688 71.902344 -13.023438 73.53125 -5.425781 L 75.429688 4.339844 L 60.507812 15.464844 L 60.777344 15.464844 C 50.738281 23.605469 39.613281 32.558594 29.03125 41.785156 C -1.355469 66.75 -34.1875 112.0625 -37.714844 153.03125 C -37.988281 158.1875 -37.714844 163.074219 -36.902344 167.683594 C -36.085938 172.570312 -34.1875 177.183594 -31.476562 181.523438 C -28.21875 186.136719 -24.960938 188.847656 -21.164062 191.292969 L -12.753906 195.359375 C -12.210938 195.359375 -11.9375 195.632812 -11.394531 195.902344 C -10.851562 195.902344 -9.769531 196.445312 -9.226562 196.445312 C -8.953125 196.445312 -6.242188 197.53125 -5.96875 197.53125 C -3.527344 198.074219 -1.085938 198.347656 1.355469 198.347656 C 4.339844 198.347656 7.054688 198.074219 10.039062 197.53125 C 54.265625 186.949219 86.285156 124.542969 96.59375 81.941406 L 97.136719 78.414062 C 97.136719 78.144531 97.410156 76.246094 97.679688 75.972656 L 98.496094 70.277344 C 100.664062 61.59375 101.480469 41.785156 101.480469 33.101562 C 101.480469 20.351562 100.9375 6.511719 97.953125 -5.699219 C 108.804688 -13.296875 125.355469 -24.960938 137.296875 -30.390625 C 138.378906 -31.203125 140.007812 -31.746094 141.636719 -32.289062 L 143.265625 -33.375 C 144.621094 -34.1875 144.894531 -36.085938 144.351562 -37.171875 Z M 74.347656 65.121094 C 74.347656 65.390625 74.074219 65.933594 74.074219 66.207031 C 73.804688 67.019531 73.53125 67.832031 73.53125 68.917969 C 73.261719 69.460938 73.261719 71.089844 73.261719 71.902344 L 72.445312 77.058594 C 65.390625 107.449219 51.824219 135.9375 32.832031 160.902344 L 33.101562 160.902344 L 29.304688 166.058594 L 25.234375 170.667969 L 25.234375 170.398438 C 17.09375 179.351562 7.867188 188.035156 -4.882812 188.035156 L -6.242188 188.035156 C -6.785156 188.035156 -7.054688 188.035156 -7.597656 187.765625 C -13.566406 187.765625 -22.519531 182.066406 -26.046875 177.722656 C -28.488281 174.46875 -30.117188 170.398438 -30.933594 166.601562 C -32.015625 161.988281 -32.289062 157.644531 -32.015625 153.304688 L -32.015625 153.574219 C -29.03125 122.644531 -7.054688 84.929688 14.652344 62.136719 C 19.535156 56.980469 24.421875 52.640625 29.304688 48.296875 L 31.746094 45.855469 C 43.683594 35.273438 55.625 25.777344 66.75 17.09375 L 76.246094 10.039062 C 76.789062 13.839844 76.789062 16.28125 77.058594 20.894531 C 77.058594 23.605469 77.332031 26.046875 77.332031 29.03125 C 77.332031 39.886719 76.515625 54.265625 74.347656 65.121094 Z M 74.347656 65.121094 "/></g></g></g><g fill="#8c52ff" fill-opacity="1"><g transform="translate(102.064583, 369.894376)"><g><path d="M 48.1875 -24.90625 L 68.328125 -24.90625 L 68.328125 0 L 1.421875 0 L 1.421875 -14.578125 L 32.59375 -62.15625 L 22.0625 -62.15625 L 22.0625 -53.859375 L 1.921875 -53.859375 L 1.921875 -78.765625 L 66.71875 -78.765625 L 66.71875 -64.1875 L 35.640625 -16.609375 L 48.1875 -16.609375 Z M 48.1875 -24.90625 "/></g></g></g><g fill="#5ce1e6" fill-opacity="1"><g transform="translate(245.625119, 663.488439)"><g><path d="M 59.738281 -68.433594 C 57.515625 -75.710938 50.84375 -80.664062 43.261719 -80.664062 L 11.21875 -80.664062 C 6.875 -80.664062 3.335938 -77.023438 3.335938 -72.675781 L 3.335938 -8.1875 C 3.335938 -3.738281 6.875 -0.203125 11.21875 -0.203125 L 21.734375 -0.203125 C 26.078125 -0.203125 29.617188 -3.738281 29.617188 -8.1875 L 29.617188 -26.6875 L 43.667969 -26.6875 C 47.914062 -26.6875 51.957031 -28.503906 54.683594 -31.738281 C 58.019531 -35.78125 61.457031 -42.757812 61.457031 -54.382812 C 61.457031 -60.246094 60.75 -64.996094 59.738281 -68.433594 Z M 38.816406 -54.585938 L 38.816406 -53.167969 C 38.816406 -49.730469 36.1875 -47.105469 32.851562 -47.105469 L 30.929688 -47.105469 C 30.121094 -47.105469 29.617188 -47.609375 29.617188 -48.316406 L 29.617188 -59.234375 C 29.617188 -59.941406 30.121094 -60.648438 30.929688 -60.648438 L 32.851562 -60.648438 C 36.1875 -60.648438 38.816406 -57.820312 38.816406 -54.585938 Z M 38.816406 -54.585938 "/></g></g></g><g fill="#5ce1e6" fill-opacity="1"><g transform="translate(308.798438, 663.488439)"><g><path d="M 34.671875 -82.078125 C 18.09375 -82.078125 1.71875 -68.734375 1.71875 -52.058594 L 1.71875 -29.011719 C 1.71875 -11.726562 18.09375 1.71875 34.671875 1.71875 C 51.652344 1.71875 67.625 -11.726562 67.625 -29.011719 L 67.625 -52.058594 C 67.625 -68.734375 51.652344 -82.078125 34.671875 -82.078125 Z M 41.445312 -30.019531 C 41.445312 -26.585938 38.308594 -23.550781 34.671875 -23.550781 C 30.929688 -23.550781 28 -26.585938 28 -30.019531 L 28 -50.238281 C 28 -53.875 30.929688 -56.910156 34.671875 -56.910156 C 38.308594 -56.910156 41.445312 -53.875 41.445312 -50.238281 Z M 41.445312 -30.019531 "/></g></g></g><g fill="#5ce1e6" fill-opacity="1"><g transform="translate(378.137475, 663.488439)"><g><path d="M 35.378906 -84.503906 C 34.164062 -84.503906 1.71875 -86.222656 1.71875 -58.121094 C 1.71875 -40.535156 14.453125 -30.425781 31.539062 -30.425781 L 37.601562 -30.425781 C 40.9375 -30.425781 43.667969 -28.402344 43.667969 -25.066406 C 43.667969 -21.832031 40.9375 -19.507812 38.109375 -19.507812 C 36.492188 -19.507812 33.761719 -20.015625 32.75 -24.058594 C 32.445312 -24.867188 32.042969 -25.371094 30.527344 -25.066406 L 3.4375 -21.832031 C 1.921875 -21.53125 1.617188 -20.519531 2.425781 -19.003906 C 6.570312 -7.480469 13.949219 3.640625 39.21875 3.640625 C 51.957031 3.640625 68.027344 -3.335938 68.027344 -25.574219 C 68.027344 -52.964844 43.871094 -50.945312 35.378906 -50.945312 C 32.75 -50.945312 27.695312 -51.550781 27.695312 -56.402344 C 27.695312 -60.347656 31.03125 -62.0625 33.257812 -62.0625 C 34.875 -62.0625 37.601562 -60.851562 38.613281 -58.121094 C 39.015625 -56.910156 39.925781 -56.402344 40.9375 -56.402344 L 65.703125 -59.839844 C 66.816406 -59.941406 67.625 -61.054688 67.320312 -62.570312 C 66.207031 -68.027344 61.355469 -84.503906 35.378906 -84.503906 Z M 35.378906 -84.503906 "/></g></g></g><g fill="#5ce1e6" fill-opacity="1"><g transform="translate(447.880826, 663.488439)"><g><path d="M 67.726562 -80.867188 L 10.410156 -80.867188 C 6.570312 -80.867188 3.335938 -77.730469 3.335938 -73.789062 L 3.335938 -59.941406 C 3.335938 -56.101562 6.570312 -52.867188 10.410156 -52.867188 L 24.359375 -52.867188 C 24.765625 -52.867188 25.066406 -52.460938 25.066406 -52.15625 L 25.066406 -6.875 C 25.066406 -3.03125 28.203125 0.203125 32.246094 0.203125 L 45.992188 0.203125 C 49.832031 0.203125 53.066406 -3.03125 53.066406 -6.875 L 53.066406 -52.15625 C 53.066406 -52.460938 53.472656 -52.867188 53.875 -52.867188 L 67.726562 -52.867188 C 71.566406 -52.867188 74.800781 -56.101562 74.800781 -59.941406 L 74.800781 -73.789062 C 74.800781 -77.730469 71.566406 -80.867188 67.726562 -80.867188 Z M 67.726562 -80.867188 "/></g></g></g><path stroke-linecap="butt" transform="matrix(0.6379, 0, 0, 0.6379, 221.87028, 580.587951)" fill="none" stroke-linejoin="miter" d="M 136.349548 18.722839 C 132.865215 7.308433 122.381597 -0.46855 110.507919 -0.46855 L 60.288204 -0.46855 C 53.478751 -0.46855 47.912391 5.257024 47.912391 12.066477 L 47.912391 113.155009 C 47.912391 120.117552 53.478751 125.690036 60.288204 125.690036 L 76.772959 125.690036 C 83.576288 125.690036 89.11203 120.117552 89.11203 113.155009 L 89.11203 84.178093 L 111.126404 84.178093 C 117.819508 84.178093 124.120701 81.318368 128.419475 76.24802 C 133.636789 69.903961 139.019441 58.954949 139.019441 40.737213 C 139.019441 31.564047 137.935563 24.099368 136.349548 18.722839 Z M 103.539253 40.424909 L 103.539253 42.672273 C 103.539253 48.048801 99.399693 52.145496 94.176255 52.145496 L 91.163439 52.145496 C 89.92647 52.145496 89.11203 51.373921 89.11203 50.253301 L 89.11203 33.150061 C 89.11203 32.029441 89.92647 30.908821 91.163439 30.908821 L 94.176255 30.908821 C 99.399693 30.908821 103.539253 35.354561 103.539253 40.424909 Z M 196.073104 -2.67305 C 170.078385 -2.67305 144.426588 18.257445 144.426588 44.411378 L 144.426588 80.503928 C 144.426588 107.625391 170.078385 128.708975 196.073104 128.708975 C 222.692431 128.708975 247.71962 107.625391 247.71962 80.503928 L 247.71962 44.411378 C 247.71962 18.257445 222.692431 -2.67305 196.073104 -2.67305 Z M 206.673071 78.917913 C 206.673071 84.337307 201.761936 89.095351 196.073104 89.095351 C 190.19444 89.095351 185.632351 84.337307 185.632351 78.917913 L 185.632351 47.234362 C 185.632351 41.545529 190.19444 36.787485 196.073104 36.787485 C 201.761936 36.787485 206.673071 41.545529 206.673071 47.234362 Z M 305.893903 -6.463563 C 303.958842 -6.463563 253.126766 -9.170198 253.126766 34.89529 C 253.126766 62.476024 273.089731 78.299429 299.862148 78.299429 L 309.378236 78.299429 C 314.601674 78.299429 318.857582 81.471458 318.857582 86.694896 C 318.857582 91.765244 314.601674 95.396544 310.149811 95.396544 C 307.639131 95.396544 303.340358 94.624969 301.754343 88.280911 C 301.295072 87.001077 300.633723 86.229502 298.276133 86.694896 L 255.79666 91.765244 C 253.43907 92.26738 252.973676 93.853395 254.210645 96.210984 C 260.707794 114.27563 272.275291 131.685049 311.895039 131.685049 C 331.85188 131.685049 357.081148 120.778902 357.081148 85.923321 C 357.081148 42.978453 319.206628 46.150483 305.893903 46.150483 C 301.754343 46.150483 293.82427 45.182953 293.82427 37.565183 C 293.82427 31.410957 299.047708 28.704322 302.568783 28.704322 C 305.085586 28.704322 309.378236 30.596517 310.964251 34.89529 C 311.582735 36.787485 313.01566 37.565183 314.601674 37.565183 L 353.400859 32.182531 C 355.146088 32.029441 356.419798 30.290336 355.954404 27.926623 C 354.215299 19.341324 346.591406 -6.463563 305.893903 -6.463563 Z M 465.909922 -0.774731 L 376.076582 -0.774731 C 370.044828 -0.774731 364.97448 4.136403 364.97448 10.327372 L 364.97448 32.029441 C 364.97448 38.067319 370.044828 43.131544 376.076582 43.131544 L 397.937865 43.131544 C 398.593091 43.131544 399.058486 43.750028 399.058486 44.215422 L 399.058486 115.206418 C 399.058486 121.244296 403.96962 126.308521 410.313678 126.308521 L 431.862658 126.308521 C 437.85767 126.308521 442.928019 121.244296 442.928019 115.206418 L 442.928019 44.215422 C 442.928019 43.750028 443.583245 43.131544 444.207853 43.131544 L 465.909922 43.131544 C 471.941677 43.131544 477.012025 38.067319 477.012025 32.029441 L 477.012025 10.327372 C 477.012025 4.136403 471.941677 -0.774731 465.909922 -0.774731 Z M 465.909922 -0.774731 " stroke="#000000" stroke-width="2.574975" stroke-opacity="1" stroke-miterlimit="4"/></svg>